<svg aria-hidden="true" style="position: absolute; width: 0; height: 0; overflow: hidden;" version="1.1" xmlns="http://www.w3.org/2000/svg" xmlns:xlink="http://www.w3.org/1999/xlink">
<defs>
<symbol id="icon-instagram" viewBox="0 0 32 32"><path d="M31.969 9.408c-.075-1.7-.35-2.869-.744-3.882a7.803 7.803 0 0 0-1.85-2.838A7.867 7.867 0 0 0 26.543.844C25.524.45 24.361.175 22.661.1 20.948.019 20.404 0 16.06 0s-4.888.019-6.595.094c-1.7.075-2.869.35-3.882.744a7.803 7.803 0 0 0-2.838 1.85A7.867 7.867 0 0 0 .901 5.52C.507 6.539.232 7.702.157 9.402c-.081 1.713-.1 2.257-.1 6.601s.019 4.888.094 6.595c.075 1.7.35 2.869.744 3.882a7.895 7.895 0 0 0 1.85 2.838 7.867 7.867 0 0 0 2.832 1.844c1.019.394 2.182.669 3.882.744 1.706.075 2.25.094 6.595.094s4.888-.018 6.595-.094c1.7-.075 2.869-.35 3.882-.744a8.181 8.181 0 0 0 4.682-4.682c.394-1.019.669-2.182.744-3.882.075-1.707.094-2.251.094-6.595s-.006-4.888-.081-6.595zm-2.882 13.065c-.069 1.563-.331 2.407-.55 2.969a5.307 5.307 0 0 1-3.038 3.038c-.563.219-1.413.481-2.969.55-1.688.075-2.194.094-6.464.094s-4.782-.018-6.464-.094c-1.563-.069-2.407-.331-2.969-.55a4.926 4.926 0 0 1-1.838-1.194 4.974 4.974 0 0 1-1.194-1.838c-.219-.563-.481-1.413-.55-2.969-.075-1.688-.094-2.194-.094-6.464s.019-4.782.094-6.464c.069-1.563.331-2.407.55-2.969a4.868 4.868 0 0 1 1.2-1.838A4.974 4.974 0 0 1 6.639 3.55c.563-.219 1.413-.481 2.969-.55 1.688-.075 2.194-.094 6.464-.094 4.276 0 4.782.019 6.464.094 1.563.069 2.407.331 2.969.55a4.914 4.914 0 0 1 1.838 1.194 4.974 4.974 0 0 1 1.194 1.838c.219.563.481 1.413.55 2.969.075 1.688.094 2.194.094 6.464s-.019 4.77-.094 6.457z"/><path d="M16.059 7.782c-4.538 0-8.22 3.682-8.22 8.22s3.682 8.22 8.22 8.22 8.22-3.682 8.22-8.22-3.682-8.22-8.22-8.22zm0 13.553a5.333 5.333 0 0 1 0-10.664 5.333 5.333 0 0 1 0 10.664zM26.524 7.457a1.919 1.919 0 1 1-3.838 0 1.919 1.919 0 0 1 3.838 0z"/></symbol>

<symbol id="icon-twitter" viewBox="0 0 34 32">
<path d="M29.867 4.862c-0.952 0.418-1.966 0.694-3.024 0.829 1.088-0.65 1.918-1.67 2.309-2.901-1.014 0.605-2.134 1.032-3.328 1.27-0.963-1.026-2.336-1.661-3.834-1.661-2.906 0-5.245 2.358-5.245 5.25 0 0.416 0.035 0.816 0.122 1.197-4.363-0.213-8.224-2.304-10.818-5.49-0.453 0.786-0.718 1.685-0.718 2.653 0 1.818 0.936 3.429 2.331 4.362-0.843-0.016-1.67-0.261-2.371-0.646 0 0.016 0 0.037 0 0.058 0 2.55 1.819 4.669 4.205 5.157-0.427 0.117-0.893 0.173-1.376 0.173-0.336 0-0.675-0.019-0.994-0.090 0.68 2.078 2.61 3.606 4.904 3.656-1.786 1.397-4.053 2.238-6.507 2.238-0.43 0-0.843-0.019-1.256-0.072 2.325 1.499 5.080 2.355 8.051 2.355 9.658 0 14.938-8 14.938-14.934 0-0.232-0.008-0.456-0.019-0.678 1.042-0.739 1.917-1.662 2.63-2.725z"></path>
</symbol>

<symbol id="icon-facebook" viewBox="0 0 32 32"><path d="M21.329 5.313h2.921V.225C23.746.156 22.013 0 19.994 0c-4.212 0-7.097 2.649-7.097 7.519V12H8.249v5.688h4.648V32h5.699V17.689h4.46l.708-5.688h-5.169V8.082c.001-1.644.444-2.769 2.735-2.769z"/></symbol>

<symbol id="icon-linkedin" viewBox="0 0 32 32"><path d="M31.992 32v-.001H32V20.263c0-5.741-1.236-10.164-7.948-10.164-3.227 0-5.392 1.771-6.276 3.449h-.093v-2.913h-6.364v21.364h6.627V21.42c0-2.785.528-5.479 3.977-5.479 3.399 0 3.449 3.179 3.449 5.657v10.401h6.62zM.528 10.636h6.635V32H.528V10.636zM3.843 0C1.722 0 0 1.721 0 3.843s1.721 3.879 3.843 3.879c2.121 0 3.843-1.757 3.843-3.879A3.846 3.846 0 0 0 3.843 0z"/></symbol>

<symbol id="icon-location" viewBox="0 0 32 32">
<path d="M14.363 1.789c-4.251 0.547-7.695 2.907-9.497 6.508-1.101 2.201-1.567 5.069-1.239 7.649 0.425 3.339 2.091 6.785 4.817 9.963 1.319 1.539 2.283 2.472 3.16 3.059 1.235 0.833 2.757 1.33 4.395 1.33 1.167 0 2.275-0.252 3.273-0.705l-0.050 0.020c0.976-0.433 1.603-0.888 2.663-1.929 3.381-3.32 5.572-7.020 6.301-10.641 0.219-1.089 0.265-1.593 0.261-2.883-0.004-1.307-0.061-1.845-0.317-3.003-0.801-3.623-3.049-6.513-6.324-8.133-1.221-0.604-2.768-1.059-4.205-1.236-0.807-0.099-2.467-0.099-3.239 0.001zM17.36 3.739c1.348 0.161 2.574 0.547 3.687 1.12l-0.061-0.028c2.595 1.285 4.355 3.459 5.115 6.316 0.296 1.111 0.373 1.744 0.373 3.067 0.001 1.348-0.080 1.997-0.399 3.2-0.704 2.656-2.303 5.373-4.675 7.947-1.444 1.567-2.109 2.1-3.168 2.536-0.811 0.335-1.151 0.395-2.233 0.396-0.916 0-1.025-0.011-1.52-0.148-0.777-0.23-1.455-0.568-2.057-1.004l0.020 0.013c-0.452-0.341-1.881-1.779-2.501-2.516-2.412-2.865-3.784-5.581-4.296-8.504-0.176-1.007-0.176-2.836 0.001-3.84 0.477-2.719 1.604-4.727 3.533-6.304 2.171-1.773 5.115-2.583 8.18-2.251zM15.449 8.644c-1.68 0.181-3.129 1.153-3.976 2.668-0.23 0.428-0.409 0.925-0.511 1.449l-0.005 0.033c-0.133 0.664-0.087 1.731 0.105 2.376 0.422 1.404 1.385 2.532 2.641 3.162l0.030 0.014c0.817 0.403 1.269 0.503 2.267 0.503s1.449-0.1 2.267-0.503c1.286-0.644 2.249-1.772 2.66-3.139l0.009-0.037c0.192-0.651 0.24-1.715 0.107-2.373-0.265-1.312-0.885-2.315-1.949-3.156-0.932-0.737-2.38-1.133-3.644-0.997zM16.975 10.72c0.652 0.201 1.383 0.792 1.784 1.444 0.063 0.1 0.179 0.375 0.257 0.609 0.121 0.359 0.143 0.515 0.141 0.987-0.004 0.945-0.303 1.627-1.004 2.292-0.613 0.584-1.297 0.855-2.153 0.855s-1.54-0.271-2.153-0.855c-0.401-0.37-0.708-0.836-0.885-1.362l-0.007-0.023c-0.156-0.495-0.153-1.329 0.005-1.84 0.369-1.133 1.31-1.981 2.474-2.211l0.021-0.003c0.375-0.069 1.119-0.016 1.52 0.108z"></path>
</symbol>
<symbol id="icon-call" viewBox="0 0 32 32">
<path d="M6.48 1.792c-0.877 0.196-1.656 0.647-2.473 1.433-1.264 1.217-1.949 2.532-2.221 4.269-0.072 0.46-0.087 0.791-0.064 1.545 0.056 1.899 0.461 3.377 1.512 5.508 3.104 6.291 10.359 13.025 16.249 15.083 2.103 0.733 4.261 0.867 5.985 0.368 1.9-0.549 3.521-1.904 4.343-3.625 0.222-0.426 0.372-0.924 0.421-1.452l0.001-0.016c0.131-1.145-0.219-2.177-0.961-2.852-0.163-0.147-1.36-1.023-2.661-1.947-3.105-2.204-3.495-2.4-4.629-2.333-0.856 0.049-1.505 0.423-2.6 1.492l-0.72 0.703-0.197-0.104c-0.351-0.185-1.407-1.012-2.117-1.657-1.725-1.569-3.631-3.672-4.236-4.675l-0.121-0.203 0.636-0.677c0.828-0.884 1.043-1.163 1.293-1.687 0.436-0.905 0.387-1.748-0.165-2.805-0.172-0.332-2.587-3.799-3.556-5.105-0.415-0.56-0.947-0.944-1.661-1.2-0.408-0.147-1.528-0.18-2.056-0.063zM7.931 3.741c0.167 0.054 0.311 0.135 0.435 0.239l-0.002-0.002c0.116 0.097 0.929 1.193 1.809 2.433 1.869 2.636 1.912 2.701 2.020 3.068 0.147 0.504-0.017 0.785-1.149 1.975-0.928 0.975-0.991 1.089-0.991 1.825 0 0.541 0.007 0.573 0.201 0.964 0.687 1.373 3.691 4.623 5.932 6.415 1.299 1.039 2.072 1.384 2.823 1.263 0.464-0.076 0.688-0.231 1.572-1.085 1.217-1.177 1.52-1.303 2.243-0.932 0.343 0.176 4.848 3.34 5.135 3.605 0.357 0.331 0.444 1.141 0.191 1.759-0.439 1.067-1.347 2.016-2.416 2.525-2.092 0.996-4.711 0.639-7.973-1.088-4.269-2.261-9.111-6.887-11.787-11.265-2.104-3.44-2.771-6.289-2.017-8.613 0.505-1.559 1.907-2.952 3.164-3.147 0.283-0.044 0.451-0.031 0.811 0.061z"></path>
</symbol>
<symbol id="icon-sms" viewBox="0 0 32 32">
<path d="M8.247 3.741c-3.271 0.288-5.485 2.053-6.245 4.977-0.288 1.109-0.295 1.277-0.295 7.272 0 3.445 0.020 5.703 0.055 5.984 0.131 1.085 0.353 1.884 0.747 2.68 1.064 2.159 3.021 3.369 5.828 3.608 0.939 0.079 14.389 0.079 15.328 0 2.807-0.239 4.764-1.449 5.828-3.608 0.393-0.796 0.616-1.595 0.747-2.68 0.035-0.281 0.055-2.539 0.055-5.984 0-5.995-0.007-6.163-0.295-7.272-0.675-2.596-2.484-4.276-5.195-4.824-0.307-0.061-0.7-0.117-1.099-0.155l-0.052-0.004c-0.784-0.068-14.632-0.063-15.407 0.005zM23.76 5.712c1.017 0.124 2.068 0.499 2.664 0.948 1.019 0.769 1.572 1.779 1.848 3.367 0.083 0.483 0.129 10.075 0.053 11.172-0.107 1.536-0.397 2.443-1.072 3.341-0.7 0.933-1.952 1.56-3.493 1.748-0.669 0.081-14.851 0.081-15.52 0-1.127-0.137-2.221-0.56-2.895-1.119-0.573-0.475-1.051-1.193-1.315-1.977-0.208-0.621-0.295-1.104-0.356-1.993-0.076-1.097-0.029-10.689 0.053-11.172 0.268-1.543 0.775-2.504 1.724-3.268 0.62-0.5 1.715-0.917 2.735-1.045 0.572-0.071 14.988-0.072 15.573-0.001zM8.872 11.107c-0.181 0.133-0.397 0.379-0.491 0.556-0.092 0.175-0.075 0.592 0.032 0.777 0.095 0.165 4.371 3.628 4.891 3.96 0.692 0.443 1.449 0.664 2.415 0.705 1.263 0.053 2.219-0.193 3.108-0.804 0.617-0.424 4.677-3.717 4.76-3.861 0.059-0.121 0.093-0.264 0.093-0.415 0-0.004-0-0.007-0-0.011v0.001c0-0.212-0.035-0.311-0.179-0.513-0.327-0.46-0.645-0.6-1.097-0.479-0.071 0.019-1.161 0.859-2.423 1.867-1.261 1.007-2.415 1.889-2.564 1.96-0.424 0.2-0.884 0.297-1.409 0.297-0.747 0-1.271-0.151-1.797-0.516-0.119-0.083-1.175-0.92-2.348-1.861s-2.192-1.727-2.264-1.747c-0.271-0.072-0.561-0.039-0.727 0.084z"></path>
</symbol>
<symbol id="icon-untitled" viewBox="0 0 42 32">
<path d="M13.64 30.073h-13.056l12.288-29.056h8.32l-7.552 29.056zM34.376 30.073h-13.056l12.288-29.056h8.32l-7.552 29.056z"></path>
</symbol>
<symbol id="icon-Star-1" viewBox="0 0 34 32">
<path d="M16.713 0.23l4.478 10.767 11.624 0.932-8.856 7.586 2.706 11.343-9.952-6.078-9.952 6.078 2.706-11.343-8.856-7.586 11.624-0.932 4.478-10.767z"></path>
</symbol>
<symbol id="icon-seo" viewBox="0 0 32 32">
<path fill="#fff" style="fill: var(--color1, #fff)" d="M22.902 20.272c1.134 1.053 2.043 2.325 2.671 3.739s0.964 2.941 0.986 4.488c-0 0.222-0.064 0.44-0.183 0.628s-0.29 0.337-0.491 0.432c-0.201 0.094-0.425 0.129-0.646 0.101s-0.429-0.119-0.599-0.261l-4.48-3.798z"></path>
<path fill="#ff3839" style="fill: var(--color2, #ff3839)" d="M25.37 30.163c-0.394-0.001-0.775-0.144-1.072-0.403l-4.458-3.811 0.64-0.73 4.442 3.814c0.1 0.088 0.224 0.144 0.356 0.163s0.267-0.001 0.388-0.056c0.121-0.056 0.223-0.145 0.295-0.258s0.108-0.244 0.107-0.377c-0.019-1.482-0.338-2.944-0.939-4.299s-1.47-2.574-2.556-3.582l0.64-0.704c1.182 1.094 2.13 2.417 2.785 3.889s1.006 3.061 1.029 4.671c0.004 0.318-0.084 0.631-0.255 0.9s-0.416 0.482-0.705 0.614c-0.218 0.106-0.456 0.164-0.698 0.17z"></path>
<path fill="#fff" style="fill: var(--color1, #fff)" d="M8.64 20.272c-1.521 1.428-2.627 3.242-3.2 5.248-0.276 0.969-0.421 1.971-0.432 2.979 0 0.222 0.064 0.44 0.183 0.628s0.29 0.337 0.491 0.432c0.201 0.094 0.425 0.129 0.646 0.101s0.429-0.119 0.599-0.261l4.461-3.798z"></path>
<path fill="#ff3839" style="fill: var(--color2, #ff3839)" d="M6.186 30.163c-0.244 0-0.486-0.053-0.707-0.157-0.29-0.131-0.536-0.344-0.706-0.613s-0.259-0.582-0.254-0.9c0.020-1.612 0.367-3.203 1.021-4.677s1.6-2.799 2.781-3.896l0.656 0.704c-1.465 1.364-2.53 3.102-3.078 5.027-0.265 0.929-0.405 1.889-0.416 2.854-0.001 0.133 0.037 0.263 0.108 0.375s0.173 0.201 0.294 0.257c0.12 0.056 0.254 0.076 0.386 0.057s0.255-0.074 0.355-0.161l4.451-3.814 0.64 0.73-4.458 3.811c-0.297 0.259-0.678 0.402-1.072 0.403z"></path>
<path fill="#fff" style="fill: var(--color1, #fff)" d="M19.443 25.6h-7.331c-0.732-0.001-1.439-0.267-1.989-0.75s-0.907-1.149-1.003-1.874l-0.445-3.43c-0.762-5.546 0.56-11.177 3.709-15.805 0.115-0.166 0.234-0.32 0.352-0.496l1.219-1.667c0.207-0.29 0.481-0.526 0.798-0.689s0.668-0.248 1.025-0.248 0.708 0.085 1.025 0.248c0.317 0.163 0.59 0.399 0.798 0.689l1.219 1.667c0.118 0.163 0.237 0.32 0.352 0.496 3.146 4.629 4.467 10.259 3.709 15.805l-0.448 3.414c-0.091 0.729-0.445 1.399-0.995 1.885s-1.259 0.755-1.993 0.755z"></path>
<path fill="#202020" style="fill: var(--color3, #202020)" d="M19.443 26.064h-7.331c-0.849 0-1.67-0.308-2.309-0.868s-1.052-1.333-1.163-2.175l-0.448-3.414c-0.779-5.665 0.575-11.418 3.798-16.141 0.115-0.17 0.237-0.339 0.358-0.506l1.216-1.68c0.254-0.348 0.587-0.631 0.971-0.826s0.809-0.297 1.24-0.297c0.431 0 0.856 0.102 1.24 0.297s0.717 0.478 0.971 0.826l1.213 1.68c0.122 0.166 0.24 0.336 0.358 0.506 3.225 4.723 4.579 10.475 3.802 16.141l-0.448 3.414c-0.111 0.842-0.524 1.614-1.162 2.174s-1.458 0.869-2.307 0.869zM15.776 1.13c-0.28-0.002-0.556 0.064-0.805 0.191s-0.465 0.312-0.628 0.539l-1.222 1.661-0.346 0.486c-3.085 4.531-4.376 10.046-3.622 15.475l0.448 3.414c0.081 0.61 0.38 1.171 0.843 1.577s1.057 0.63 1.672 0.631h7.328c0.614-0.005 1.207-0.231 1.668-0.636s0.762-0.963 0.847-1.572l0.442-3.414c0.751-5.427-0.541-10.94-3.626-15.469-0.112-0.163-0.227-0.32-0.342-0.486l-1.219-1.667c-0.164-0.227-0.38-0.412-0.63-0.539s-0.526-0.192-0.807-0.191z"></path>
<path fill="#ff3839" style="fill: var(--color2, #ff3839)" d="M15.776 15.843c-0.854 0-1.688-0.253-2.398-0.727s-1.263-1.148-1.59-1.936-0.413-1.656-0.247-2.493c0.166-0.837 0.577-1.606 1.18-2.21s1.372-1.016 2.209-1.183c0.837-0.167 1.705-0.083 2.494 0.243s1.463 0.878 1.939 1.587c0.475 0.709 0.729 1.543 0.731 2.397 0 1.145-0.455 2.244-1.264 3.055s-1.907 1.267-3.053 1.268zM15.776 8.163c-0.664 0-1.313 0.197-1.865 0.566s-0.982 0.893-1.236 1.506c-0.254 0.613-0.321 1.288-0.191 1.94s0.449 1.249 0.919 1.719c0.47 0.469 1.068 0.789 1.719 0.919s1.326 0.063 1.939-0.191c0.613-0.254 1.138-0.684 1.506-1.236s0.566-1.201 0.566-1.865c-0.002-0.889-0.356-1.741-0.985-2.37s-1.482-0.981-2.371-0.981v-0.006z"></path>
<path fill="#ff3839" style="fill: var(--color2, #ff3839)" d="M15.776 30.512c-0.127 0-0.249-0.051-0.339-0.141s-0.141-0.212-0.141-0.339v-3.104c0-0.127 0.051-0.249 0.141-0.339s0.212-0.141 0.339-0.141 0.249 0.051 0.339 0.141c0.090 0.090 0.141 0.212 0.141 0.339v3.104c0 0.127-0.051 0.249-0.141 0.339s-0.212 0.141-0.339 0.141z"></path>
<path fill="#ff3839" style="fill: var(--color2, #ff3839)" d="M13.536 31.709c-0.127 0-0.249-0.051-0.339-0.141s-0.141-0.212-0.141-0.339v-2.749c0-0.127 0.051-0.249 0.141-0.339s0.212-0.141 0.339-0.141 0.249 0.051 0.339 0.141c0.090 0.090 0.141 0.212 0.141 0.339v2.758c-0.002 0.126-0.054 0.245-0.144 0.333s-0.21 0.137-0.336 0.137z"></path>
<path fill="#ff3839" style="fill: var(--color2, #ff3839)" d="M18.016 31.709c-0.127 0-0.249-0.051-0.339-0.141s-0.141-0.212-0.141-0.339v-2.749c0-0.127 0.051-0.249 0.141-0.339s0.212-0.141 0.339-0.141 0.249 0.051 0.339 0.141c0.090 0.090 0.141 0.212 0.141 0.339v2.758c-0.003 0.126-0.054 0.245-0.144 0.333s-0.21 0.137-0.336 0.137z"></path>
</symbol>
<symbol id="icon-development" viewBox="0 0 32 32">
<path fill="#fff" style="fill: var(--color1, #fff)" d="M26.561 5.878h-21.122c-1.561 0-2.827 1.546-2.827 3.453v17.257c0 1.907 1.266 3.453 2.827 3.453h21.122c1.561 0 2.827-1.546 2.827-3.453v-17.257c0-1.907-1.266-3.453-2.827-3.453z"></path>
<path fill="#202020" style="fill: var(--color3, #202020)" d="M26.567 30.933h-21.135c-0.875-0.001-1.713-0.43-2.332-1.194s-0.966-1.799-0.967-2.879v-17.455c0.001-1.080 0.349-2.115 0.967-2.879s1.457-1.193 2.332-1.194h21.135c0.875 0.001 1.713 0.43 2.332 1.194s0.966 1.799 0.967 2.879v17.455c-0.001 1.080-0.349 2.115-0.967 2.879s-1.457 1.193-2.332 1.194zM5.433 6.497c-0.625 0.001-1.224 0.308-1.665 0.853s-0.69 1.285-0.691 2.056v17.455c0.001 0.771 0.249 1.511 0.691 2.056s1.041 0.852 1.665 0.853h21.135c0.625-0.001 1.224-0.308 1.666-0.853s0.69-1.285 0.691-2.056v-17.455c-0.001-0.771-0.249-1.511-0.691-2.056s-1.041-0.852-1.666-0.853h-21.135z"></path>
<path fill="#ff3839" style="fill: var(--color2, #ff3839)" d="M5.12 8.499c0.322 0 0.582-0.261 0.582-0.582s-0.261-0.582-0.582-0.582-0.582 0.261-0.582 0.582c0 0.322 0.261 0.582 0.582 0.582z"></path>
<path fill="#ff3839" style="fill: var(--color2, #ff3839)" d="M7.094 8.499c0.322 0 0.582-0.261 0.582-0.582s-0.261-0.582-0.582-0.582-0.582 0.261-0.582 0.582c0 0.322 0.261 0.582 0.582 0.582z"></path>
<path fill="#ff3839" style="fill: var(--color2, #ff3839)" d="M9.072 8.499c0.322 0 0.582-0.261 0.582-0.582s-0.261-0.582-0.582-0.582-0.582 0.261-0.582 0.582c0 0.322 0.261 0.582 0.582 0.582z"></path>
<path fill="#ff3839" style="fill: var(--color2, #ff3839)" d="M26.832 8.397h-5.392c-0.127 0-0.249-0.051-0.339-0.141s-0.141-0.212-0.141-0.339c0-0.127 0.051-0.249 0.141-0.339s0.212-0.141 0.339-0.141h5.392c0.127 0 0.249 0.051 0.339 0.141s0.141 0.212 0.141 0.339c0 0.127-0.051 0.249-0.141 0.339s-0.212 0.141-0.339 0.141z"></path>
<path fill="#ff3839" style="fill: var(--color2, #ff3839)" d="M14.029 23.77c-0.082-0-0.162-0.021-0.233-0.061s-0.131-0.097-0.174-0.167c-0.043-0.070-0.067-0.149-0.071-0.231s0.014-0.163 0.050-0.236l3.914-7.875c0.056-0.114 0.156-0.201 0.276-0.242s0.253-0.032 0.367 0.024c0.114 0.056 0.201 0.156 0.242 0.277s0.032 0.253-0.024 0.367l-3.917 7.878c-0.040 0.080-0.101 0.147-0.177 0.194s-0.163 0.072-0.252 0.072z"></path>
<path fill="#ff3839" style="fill: var(--color2, #ff3839)" d="M20.109 22.199c-0.079 0.001-0.158-0.018-0.228-0.056s-0.129-0.092-0.172-0.159c-0.035-0.052-0.059-0.111-0.072-0.172s-0.012-0.125-0-0.186c0.012-0.062 0.036-0.12 0.071-0.172s0.080-0.097 0.132-0.132l3.040-2.022-2.845-1.891c-0.106-0.070-0.18-0.18-0.205-0.305s0-0.255 0.071-0.361c0.070-0.106 0.18-0.18 0.305-0.205s0.255 0 0.361 0.071l3.434 2.291c0.066 0.044 0.12 0.103 0.158 0.173s0.057 0.148 0.057 0.227c0 0.079-0.020 0.157-0.057 0.227s-0.092 0.129-0.158 0.173l-3.626 2.419c-0.079 0.052-0.171 0.080-0.266 0.080z"></path>
<path fill="#ff3839" style="fill: var(--color2, #ff3839)" d="M11.891 22.199c-0.094-0-0.187-0.028-0.266-0.080l-3.626-2.419c-0.066-0.044-0.12-0.103-0.158-0.173s-0.057-0.148-0.057-0.227c0-0.079 0.020-0.157 0.057-0.227s0.092-0.129 0.158-0.173l3.443-2.291c0.106-0.070 0.236-0.096 0.361-0.071s0.235 0.099 0.305 0.205c0.070 0.106 0.096 0.236 0.071 0.361s-0.099 0.235-0.205 0.305l-2.854 1.891 3.040 2.022c0.052 0.035 0.097 0.080 0.132 0.132s0.059 0.111 0.071 0.172c0.012 0.062 0.012 0.125-0 0.186s-0.037 0.12-0.072 0.172c-0.043 0.067-0.102 0.121-0.172 0.159s-0.148 0.057-0.228 0.056z"></path>
<path fill="#202020" style="fill: var(--color3, #202020)" d="M29.638 9.226h-27.28v0.96h27.28v-0.96z"></path>
</symbol>
<symbol id="icon-mob-dev" viewBox="0 0 32 32">
<path fill="#fff" style="fill: var(--color1, #fff)" d="M17.274 1.421h-10.822c-1.195 0-2.163 0.969-2.163 2.163v24.707c0 1.195 0.968 2.163 2.163 2.163h10.822c1.195 0 2.163-0.969 2.163-2.163v-24.707c0-1.195-0.968-2.163-2.163-2.163z"></path>
<path fill="#202020" style="fill: var(--color3, #202020)" d="M17.28 30.934h-10.829c-0.701-0.001-1.373-0.28-1.868-0.775s-0.774-1.167-0.775-1.868v-24.704c0.001-0.701 0.279-1.373 0.775-1.869s1.167-0.775 1.868-0.777h10.829c0.701 0.002 1.373 0.281 1.868 0.777s0.774 1.168 0.775 1.869v24.704c-0.001 0.701-0.28 1.373-0.775 1.868s-1.167 0.774-1.868 0.775zM6.451 1.901c-0.447 0.001-0.875 0.179-1.19 0.495s-0.493 0.745-0.493 1.191v24.704c0.001 0.446 0.178 0.874 0.494 1.189s0.743 0.493 1.189 0.494h10.829c0.446-0.001 0.874-0.178 1.189-0.494s0.493-0.743 0.494-1.189v-24.704c0-0.447-0.177-0.875-0.493-1.191s-0.744-0.494-1.19-0.495h-10.829z"></path>
<path fill="#202020" style="fill: var(--color3, #202020)" d="M14.006 4.189h-4.288c-0.551-0.001-1.078-0.22-1.468-0.609s-0.608-0.917-0.609-1.468v-1.171h8.442v1.171c-0.001 0.551-0.22 1.078-0.609 1.468s-0.917 0.608-1.468 0.609zM8.602 1.901v0.211c0 0.296 0.118 0.58 0.327 0.79s0.494 0.327 0.79 0.327h4.288c0.296 0 0.58-0.118 0.79-0.327s0.327-0.494 0.327-0.79v-0.211h-6.522z"></path>
<path fill="#ff3839" style="fill: var(--color2, #ff3839)" d="M17.504 6.528h-11.283c-0.127 0-0.249-0.051-0.339-0.141s-0.141-0.212-0.141-0.339c0-0.127 0.051-0.249 0.141-0.339s0.212-0.141 0.339-0.141h11.283c0.127 0 0.249 0.051 0.339 0.141s0.141 0.212 0.141 0.339-0.051 0.249-0.141 0.339c-0.090 0.090-0.212 0.141-0.339 0.141z"></path>
<path fill="#ff3839" style="fill: var(--color2, #ff3839)" d="M17.504 8.269h-11.283c-0.127 0-0.249-0.051-0.339-0.141s-0.141-0.212-0.141-0.339c0-0.127 0.051-0.249 0.141-0.339s0.212-0.141 0.339-0.141h11.283c0.127 0 0.249 0.051 0.339 0.141s0.141 0.212 0.141 0.339c0 0.127-0.051 0.249-0.141 0.339s-0.212 0.141-0.339 0.141z"></path>
<path fill="#ff3839" style="fill: var(--color2, #ff3839)" d="M17.504 9.99h-4.256c-0.127 0-0.249-0.051-0.339-0.141s-0.141-0.212-0.141-0.339c0-0.127 0.051-0.249 0.141-0.339s0.212-0.141 0.339-0.141h4.256c0.127 0 0.249 0.051 0.339 0.141s0.141 0.212 0.141 0.339c0 0.127-0.051 0.249-0.141 0.339s-0.212 0.141-0.339 0.141z"></path>
<path fill="#fff" style="fill: var(--color1, #fff)" d="M29.456 21.437h-4.157c-0.576 0-1.043 0.467-1.043 1.043v0.269c0 0.576 0.467 1.043 1.043 1.043h4.157c0.576 0 1.043-0.467 1.043-1.043v-0.269c0-0.576-0.467-1.043-1.043-1.043z"></path>
<path fill="#202020" style="fill: var(--color3, #202020)" d="M29.44 24.272h-4.16c-0.404-0.001-0.792-0.162-1.077-0.448s-0.446-0.674-0.446-1.078v-0.266c0-0.404 0.16-0.791 0.446-1.077s0.673-0.446 1.077-0.446h4.16c0.404 0.001 0.791 0.162 1.076 0.447s0.446 0.672 0.447 1.076v0.266c0 0.404-0.16 0.792-0.446 1.078s-0.673 0.447-1.077 0.448zM25.28 21.917c-0.149 0-0.293 0.059-0.398 0.165s-0.165 0.249-0.165 0.398v0.266c0 0.15 0.059 0.293 0.165 0.399s0.249 0.166 0.398 0.167h4.16c0.15-0.001 0.293-0.061 0.398-0.167s0.165-0.25 0.165-0.399v-0.266c0-0.149-0.059-0.293-0.165-0.398s-0.249-0.165-0.398-0.165h-4.16z"></path>
<path fill="#fff" style="fill: var(--color1, #fff)" d="M29.456 15.152h-4.157c-0.576 0-1.043 0.467-1.043 1.043v0.269c0 0.576 0.467 1.043 1.043 1.043h4.157c0.576 0 1.043-0.467 1.043-1.043v-0.269c0-0.576-0.467-1.043-1.043-1.043z"></path>
<path fill="#202020" style="fill: var(--color3, #202020)" d="M29.44 17.987h-4.16c-0.404-0.001-0.792-0.162-1.077-0.448s-0.446-0.674-0.446-1.078v-0.266c0-0.404 0.16-0.791 0.446-1.077s0.673-0.446 1.077-0.446h4.16c0.404 0.001 0.791 0.162 1.076 0.447s0.446 0.672 0.447 1.076v0.266c0 0.404-0.16 0.792-0.446 1.078s-0.673 0.447-1.077 0.448zM25.28 15.632c-0.149 0-0.293 0.059-0.398 0.165s-0.165 0.249-0.165 0.398v0.266c-0 0.074 0.014 0.148 0.042 0.216s0.070 0.131 0.122 0.184c0.052 0.053 0.115 0.094 0.183 0.123s0.142 0.043 0.216 0.043h4.16c0.074 0 0.148-0.015 0.216-0.043s0.131-0.070 0.183-0.123c0.052-0.053 0.094-0.115 0.122-0.184s0.042-0.142 0.042-0.216v-0.266c0-0.149-0.059-0.293-0.165-0.398s-0.249-0.165-0.398-0.165h-4.16z"></path>
<path fill="#fff" style="fill: var(--color1, #fff)" d="M29.456 10.784h-4.157c-0.576 0-1.043 0.467-1.043 1.043v0.269c0 0.576 0.467 1.043 1.043 1.043h4.157c0.576 0 1.043-0.467 1.043-1.043v-0.269c0-0.576-0.467-1.043-1.043-1.043z"></path>
<path fill="#202020" style="fill: var(--color3, #202020)" d="M29.44 13.619h-4.16c-0.404-0.001-0.792-0.162-1.077-0.448s-0.446-0.674-0.446-1.078v-0.253c0-0.404 0.16-0.791 0.446-1.077s0.673-0.446 1.077-0.446h4.16c0.201-0.001 0.4 0.037 0.586 0.113s0.355 0.188 0.498 0.329 0.256 0.31 0.334 0.495c0.077 0.185 0.118 0.384 0.118 0.585v0.266c-0.003 0.404-0.167 0.791-0.455 1.074s-0.677 0.442-1.081 0.439zM25.28 11.264c-0.148 0.005-0.289 0.068-0.39 0.176s-0.157 0.252-0.154 0.4v0.266c0 0.15 0.059 0.293 0.165 0.399s0.249 0.166 0.398 0.167h4.141c0.15-0.001 0.293-0.061 0.398-0.167s0.165-0.25 0.165-0.399v-0.266c0.002-0.075-0.012-0.15-0.039-0.22s-0.069-0.133-0.121-0.187c-0.052-0.054-0.115-0.096-0.184-0.125s-0.143-0.044-0.218-0.044h-4.16z"></path>
<path fill="#202020" style="fill: var(--color3, #202020)" d="M20.227 27.84h-2.723v-0.96h2.723c0.182 0 0.356-0.072 0.484-0.201s0.201-0.303 0.201-0.484v-2.419c0-0.435 0.173-0.853 0.481-1.161s0.725-0.481 1.161-0.481h1.702v0.96h-1.702c-0.18 0.001-0.353 0.073-0.481 0.201s-0.2 0.301-0.201 0.481v2.41c0.001 0.217-0.041 0.431-0.123 0.632s-0.203 0.383-0.356 0.536c-0.153 0.154-0.334 0.276-0.534 0.359s-0.415 0.127-0.631 0.127z"></path>
<path fill="#202020" style="fill: var(--color3, #202020)" d="M15.645 26.173h-0.96v-8.682c0.001-0.434 0.173-0.85 0.479-1.158s0.722-0.482 1.156-0.484h7.936v0.96h-7.936c-0.181 0-0.355 0.072-0.483 0.199s-0.201 0.301-0.202 0.482l0.010 8.682z"></path>
<path fill="#202020" style="fill: var(--color3, #202020)" d="M12.342 26.173h-0.96v-13.053c0.001-0.436 0.175-0.853 0.483-1.161s0.726-0.481 1.162-0.481h11.229v0.96h-11.229c-0.181 0-0.355 0.072-0.483 0.199s-0.201 0.301-0.202 0.482v13.053z"></path>
<path fill="#fff" style="fill: var(--color1, #fff)" d="M16.461 26.173h-9.197c-0.576 0-1.043 0.467-1.043 1.043v0.269c0 0.576 0.467 1.043 1.043 1.043h9.197c0.576 0 1.043-0.467 1.043-1.043v-0.269c0-0.576-0.467-1.043-1.043-1.043z"></path>
<path fill="#ff3839" style="fill: var(--color2, #ff3839)" d="M16.458 29.008h-9.194c-0.404-0.001-0.792-0.162-1.077-0.448s-0.446-0.674-0.446-1.078v-0.266c0.001-0.404 0.162-0.791 0.447-1.076s0.672-0.446 1.076-0.447h9.194c0.404 0 0.792 0.16 1.078 0.446s0.447 0.673 0.448 1.077v0.266c-0.001 0.405-0.162 0.792-0.448 1.078s-0.674 0.447-1.078 0.448zM7.264 26.653c-0.149 0-0.293 0.059-0.398 0.165s-0.165 0.249-0.165 0.398v0.266c0 0.15 0.059 0.293 0.165 0.399s0.249 0.166 0.398 0.167h9.194c0.074 0 0.148-0.015 0.217-0.043s0.131-0.070 0.184-0.123c0.053-0.053 0.094-0.115 0.123-0.184s0.043-0.142 0.043-0.217v-0.266c0-0.074-0.015-0.148-0.043-0.216s-0.070-0.131-0.123-0.183c-0.053-0.052-0.115-0.094-0.184-0.122s-0.142-0.042-0.216-0.042h-9.194z"></path>
</symbol>
<symbol id="icon-ux-ui" viewBox="0 0 32 32">
<path fill="#fff" style="fill: var(--color1, #fff)" d="M29.127 4.195h-26.112c-0.398 0-0.72 0.323-0.72 0.72v22.168c0 0.398 0.323 0.72 0.72 0.72h26.112c0.398 0 0.72-0.322 0.72-0.72v-22.168c0-0.397-0.322-0.72-0.72-0.72z"></path>
<path fill="#202020" style="fill: var(--color3, #202020)" d="M29.12 28.285h-26.103c-0.664-0.002-1.201-0.539-1.203-1.203v-22.164c0.003-0.663 0.54-1.2 1.203-1.202h26.102c0.663 0.002 1.2 0.54 1.2 1.203 0 0 0 0 0 0v0 22.164c0 0 0 0 0 0 0 0.663-0.537 1.201-1.2 1.203h-0zM3.017 4.675c-0.134 0-0.243 0.109-0.243 0.243v0 22.164c0 0.134 0.109 0.243 0.244 0.243 0 0 0 0 0 0h26.102c0.133-0.002 0.24-0.11 0.24-0.243 0 0 0 0 0-0v0-22.165c-0-0.133-0.107-0.241-0.239-0.243h-26.103z"></path>
<path fill="#ff3839" style="fill: var(--color2, #ff3839)" d="M5.081 6.797c0.324 0 0.586-0.262 0.586-0.586s-0.262-0.586-0.586-0.586v0c-0.324 0-0.586 0.262-0.586 0.586s0.262 0.586 0.586 0.586v0zM7.079 6.797c0.324 0 0.586-0.262 0.586-0.586s-0.262-0.586-0.586-0.586v0c-0.324 0-0.586 0.262-0.586 0.586s0.262 0.586 0.586 0.586v0zM9.072 6.797c0.324 0 0.586-0.262 0.586-0.586s-0.262-0.586-0.586-0.586v0c-0.324 0-0.586 0.262-0.586 0.586s0.262 0.586 0.586 0.586v0zM27.011 6.691h-5.44c-0.265 0-0.48-0.215-0.48-0.48s0.215-0.48 0.48-0.48v0h5.44c0.265 0 0.48 0.215 0.48 0.48s-0.215 0.48-0.48 0.48v0z"></path>
<path fill="#202020" style="fill: var(--color3, #202020)" d="M29.846 7.536h-27.552v0.96h27.553v-0.96z"></path>
<path fill="#fff" style="fill: var(--color1, #fff)" d="M27.814 9.789h-23.523c-0.159 0-0.287 0.129-0.287 0.287v2.906c0 0.159 0.129 0.287 0.287 0.287h23.523c0 0 0.001 0 0.001 0 0.159 0 0.287-0.129 0.287-0.287 0 0 0 0 0 0v0-2.906c-0-0.159-0.129-0.287-0.288-0.287 0 0 0 0 0 0v0z"></path>
<path fill="#202020" style="fill: var(--color3, #202020)" d="M27.814 13.587h-23.523c-0.335 0-0.607-0.272-0.607-0.607v0-2.903c0-0.335 0.272-0.607 0.607-0.607h23.523c0.335 0.001 0.606 0.272 0.609 0.607v2.902c-0.002 0.335-0.273 0.606-0.608 0.608h-0zM4.323 12.947h23.459v-2.838h-23.459v2.838z"></path>
<path fill="#fff" style="fill: var(--color1, #fff)" d="M27.811 15.283h-8.563c-0 0-0 0-0.001 0-0.159 0-0.288 0.129-0.288 0.288 0 0 0 0 0 0v0 10.336c0 0 0 0 0 0.001 0 0.159 0.129 0.287 0.287 0.287 0 0 0.001 0 0.001 0h8.563c0.159 0 0.287-0.129 0.287-0.287v0-10.337c-0-0.159-0.129-0.287-0.287-0.287h-0z"></path>
<path fill="#202020" style="fill: var(--color3, #202020)" d="M27.814 26.515h-8.562c-0.332-0-0.602-0.265-0.611-0.594l-0-0.001v-10.349c0.002-0.336 0.275-0.607 0.611-0.607 0 0 0 0 0 0h8.564c0.335 0.002 0.605 0.273 0.607 0.607v10.349c-0.009 0.329-0.277 0.593-0.607 0.595h-0zM19.28 25.875h8.503v-10.272h-8.503v10.273z"></path>
<path fill="#fff" style="fill: var(--color1, #fff)" d="M16.515 23.533h-8.564c-0.159 0-0.287 0.129-0.287 0.287v1.543c0 0 0 0 0 0.001 0 0.159 0.129 0.287 0.287 0.287 0 0 0 0 0 0h8.564c0.159 0 0.287-0.129 0.287-0.287v0-1.543c-0-0.159-0.129-0.287-0.287-0.287h-0z"></path>
<path fill="#202020" style="fill: var(--color3, #202020)" d="M16.519 25.968h-8.566c-0.335-0.002-0.606-0.273-0.608-0.608v-1.539c0.002-0.335 0.273-0.606 0.607-0.608h8.567c0.335 0.002 0.605 0.273 0.607 0.607v1.54c-0.002 0.335-0.273 0.605-0.607 0.607h-0zM8 25.328h8.487v-1.476h-8.487v1.476z"></path>
<path fill="#ff3839" style="fill: var(--color2, #ff3839)" d="M16.807 16.842h-5.44c-0.265 0-0.48-0.215-0.48-0.48s0.215-0.48 0.48-0.48h5.44c0.265 0 0.48 0.215 0.48 0.48s-0.215 0.48-0.48 0.48v0zM16.807 18.745h-11.284c-0.177 0-0.32-0.143-0.32-0.32s0.143-0.32 0.32-0.32v0h11.284c0.177 0 0.32 0.143 0.32 0.32s-0.143 0.32-0.32 0.32v0zM16.807 20.211h-11.284c-0.177 0-0.32-0.143-0.32-0.32s0.143-0.32 0.32-0.32v0h11.284c0.177 0 0.32 0.143 0.32 0.32s-0.143 0.32-0.32 0.32v0zM16.807 21.635h-8.32c-0.177 0-0.32-0.143-0.32-0.32s0.143-0.32 0.32-0.32h8.32c0.177 0 0.32 0.143 0.32 0.32s-0.143 0.32-0.32 0.32v0z"></path>
<path fill="#202020" style="fill: var(--color3, #202020)" d="M27.52 15.22l-8.36 10.495 0.5 0.398 8.361-10.495-0.501-0.398z"></path>
<path fill="#202020" style="fill: var(--color3, #202020)" d="M19.448 15.379l-0.495 0.406 8.558 10.418 0.494-0.406-8.557-10.418zM28.111 9.933l-24.397 2.853 0.037 0.318 24.397-2.853-0.037-0.317z"></path>
<path fill="#202020" style="fill: var(--color3, #202020)" d="M3.75 9.94l-0.037 0.318 24.398 2.845 0.037-0.318-24.398-2.844z"></path>
</symbol>
</defs>
</svg>
