<svg aria-hidden="true" style="position: absolute; width: 0; height: 0; overflow: hidden;" version="1.1" xmlns="http://www.w3.org/2000/svg" xmlns:xlink="http://www.w3.org/1999/xlink">
<defs>
<symbol id="icon-Instagram" viewBox="0 0 32 32">
<path fill="#000" style="fill: var(--color1, #000)" d="M25.805 30.983h-20.626c-2.85 0-5.179-2.329-5.179-5.179v-20.626c0-2.85 2.329-5.179 5.179-5.179h20.626c2.85 0 5.179 2.329 5.179 5.179v20.626c0 2.863-2.316 5.179-5.179 5.179z"></path>
<path d="M15.498 23.451c-2.125 0-4.123-0.827-5.624-2.329s-2.329-3.499-2.329-5.624 0.827-4.123 2.329-5.624c1.501-1.501 3.499-2.329 5.624-2.329s4.123 0.827 5.624 2.329c1.501 1.501 2.329 3.499 2.329 5.624s-0.827 4.123-2.329 5.624c-1.514 1.502-3.499 2.329-5.624 2.329zM15.498 9.238c-3.448 0-6.26 2.799-6.26 6.26 0 3.448 2.799 6.26 6.26 6.26 3.448 0 6.26-2.799 6.26-6.26-0.013-3.448-2.812-6.26-6.26-6.26z"></path>
<path d="M25.001 7.284c0.843 0 1.527-0.684 1.527-1.527s-0.684-1.527-1.527-1.527c-0.843 0-1.527 0.684-1.527 1.527s0.684 1.527 1.527 1.527z"></path>
</symbol>
<symbol id="icon-Twitter" viewBox="0 0 36 32">
<path d="M0 27.414c3.904 0.222 7.318-0.701 10.647-3.144-3.363-0.581-5.695-2.136-6.963-5.348 0.98-0.137 1.842 0.12 2.856-0.291-3.312-1.47-5.459-3.674-5.543-7.484 1.048 0.085 1.842 0.786 3.093 0.684-3.042-3.007-3.971-6.288-2.062-10.269 3.177 3.691 6.895 6.203 11.441 7.382 0.254 0.068 0.49 0.137 0.744 0.188 1.166 0.273 2.552 0.854 3.262 0.769 1.217-0.154 0-1.572 0.304-3.417 0.963-5.741 7.216-8.356 11.847-4.989 1.352 0.991 2.417 0.974 3.752 0.376 0.693-0.308 1.403-0.615 2.231-0.974-0.186 1.64-1.437 2.546-2.434 3.759 1.132 0.256 2.045-0.068 3.093-0.41-0.355 1.179-1.234 1.845-2.028 2.495-0.828 0.666-1.149 1.367-1.183 2.461-0.507 16.558-19.114 29.356-31.839 19.172-1.234-0.991-0.034 0-1.217-0.957z"></path>
</symbol>
<symbol id="icon-Facebook" viewBox="0 0 19 32">
<path d="M11.861 18.604v13.396h-6.479v-13.396h-5.383v-5.432h5.383v-1.976c0-7.337 3.227-11.195 10.055-11.195 2.093 0 2.617 0.32 3.763 0.58v5.373c-1.283-0.213-1.645-0.331-2.978-0.331-1.582 0-2.43 0.426-3.202 1.266s-1.159 2.296-1.159 4.379v1.917h7.339l-1.969 5.432h-5.37v-0.012z"></path>
</symbol>
<symbol id="icon-LinkedIn" viewBox="0 0 32 32">
<path d="M6.952 10.123h-6.433v20.514h6.433v-20.514z"></path>
<path d="M24.352 9.679c-0.237-0.030-0.489-0.044-0.741-0.059-3.602-0.148-5.632 1.986-6.344 2.905-0.193 0.252-0.282 0.4-0.282 0.4v-2.742h-6.151v20.514h6.433c0-2.090 0-4.165 0-6.255 0-1.127 0-2.253 0-3.379 0-1.393-0.104-2.876 0.593-4.15 0.593-1.067 1.66-1.601 2.861-1.601 3.557 0 3.631 3.216 3.631 3.513 0 0.015 0 0.030 0 0.030v11.932h6.433v-13.384c0-4.58-2.327-7.278-6.433-7.722z"></path>
<path d="M3.735 7.47c2.063 0 3.735-1.672 3.735-3.735s-1.672-3.735-3.735-3.735c-2.063 0-3.735 1.672-3.735 3.735s1.672 3.735 3.735 3.735z"></path>
</symbol>
<symbol id="icon-location" viewBox="0 0 32 32">
<path stroke-linejoin="miter" stroke-linecap="butt" stroke-miterlimit="4" stroke-width="2" d="M16 17.907c2.297 0 4.16-1.862 4.16-4.16s-1.863-4.16-4.16-4.16-4.16 1.863-4.16 4.16c0 2.298 1.863 4.16 4.16 4.16z"></path>
<path stroke-linejoin="miter" stroke-linecap="butt" stroke-miterlimit="4" stroke-width="2" d="M4.827 11.32c2.627-11.547 19.733-11.533 22.347 0.013 1.533 6.773-2.68 12.507-6.373 16.053-2.68 2.587-6.92 2.587-9.613 0-3.68-3.547-7.893-9.293-6.36-16.067z"></path>
</symbol>
<symbol id="icon-call" viewBox="0 0 32 32">
<path stroke-linejoin="miter" stroke-linecap="butt" stroke-miterlimit="10" stroke-width="2" d="M29.293 24.44c0 0.48-0.107 0.973-0.333 1.453s-0.52 0.933-0.907 1.36c-0.653 0.72-1.373 1.24-2.187 1.573-0.8 0.333-1.667 0.507-2.6 0.507-1.36 0-2.813-0.32-4.347-0.973s-3.067-1.533-4.587-2.64c-1.533-1.12-2.987-2.36-4.373-3.733-1.373-1.387-2.613-2.84-3.72-4.36-1.093-1.52-1.973-3.040-2.613-4.547-0.64-1.52-0.96-2.973-0.96-4.36 0-0.907 0.16-1.773 0.48-2.573 0.32-0.813 0.827-1.56 1.533-2.227 0.853-0.84 1.787-1.253 2.773-1.253 0.373 0 0.747 0.080 1.080 0.24 0.347 0.16 0.653 0.4 0.893 0.747l3.093 4.36c0.24 0.333 0.413 0.64 0.533 0.933 0.12 0.28 0.187 0.56 0.187 0.813 0 0.32-0.093 0.64-0.28 0.947-0.173 0.307-0.427 0.627-0.747 0.947l-1.013 1.053c-0.147 0.147-0.213 0.32-0.213 0.533 0 0.107 0.013 0.2 0.040 0.307 0.040 0.107 0.080 0.187 0.107 0.267 0.24 0.44 0.653 1.013 1.24 1.707 0.6 0.693 1.24 1.4 1.933 2.107 0.72 0.707 1.413 1.36 2.12 1.96 0.693 0.587 1.267 0.987 1.72 1.227 0.067 0.027 0.147 0.067 0.24 0.107 0.107 0.040 0.213 0.053 0.333 0.053 0.227 0 0.4-0.080 0.547-0.227l1.013-1c0.333-0.333 0.653-0.587 0.96-0.747 0.307-0.187 0.613-0.28 0.947-0.28 0.253 0 0.52 0.053 0.813 0.173s0.6 0.293 0.933 0.52l4.413 3.133c0.347 0.24 0.587 0.52 0.733 0.853 0.133 0.333 0.213 0.667 0.213 1.040z"></path>
</symbol>
<symbol id="icon-sms" viewBox="0 0 32 32">
<path stroke-linejoin="round" stroke-linecap="round" stroke-miterlimit="10" stroke-width="2" d="M22.667 27.333h-13.333c-4 0-6.667-2-6.667-6.667v-9.333c0-4.667 2.667-6.667 6.667-6.667h13.333c4 0 6.667 2 6.667 6.667v9.333c0 4.667-2.667 6.667-6.667 6.667z"></path>
<path stroke-linejoin="round" stroke-linecap="round" stroke-miterlimit="10" stroke-width="2" d="M22.667 12l-4.173 3.333c-1.373 1.093-3.627 1.093-5 0l-4.16-3.333"></path>
</symbol>
<symbol id="icon-untitled" viewBox="0 0 42 32">
<path d="M13.64 30.073h-13.056l12.288-29.056h8.32l-7.552 29.056zM34.376 30.073h-13.056l12.288-29.056h8.32l-7.552 29.056z"></path>
</symbol>
<symbol id="icon-Star-1" viewBox="0 0 34 32">
<path d="M16.713 0.23l4.478 10.767 11.624 0.932-8.856 7.586 2.706 11.343-9.952-6.078-9.952 6.078 2.706-11.343-8.856-7.586 11.624-0.932 4.478-10.767z"></path>
</symbol>
<symbol id="icon-Line-2" viewBox="0 0 2288 32">
<path fill="none" stroke="#d8d8d8" style="stroke: var(--color2, #d8d8d8)" stroke-linejoin="miter" stroke-linecap="round" stroke-miterlimit="4" stroke-width="32" d="M16 16l2256 0"></path>
</symbol>
</defs>
</svg>
