<svg aria-hidden="true" style="position: absolute; width: 0; height: 0; overflow: hidden;" version="1.1" xmlns="http://www.w3.org/2000/svg" xmlns:xlink="http://www.w3.org/1999/xlink">
<defs>
<symbol id="icon-instagram" viewBox="0 0 32 32"><path d="M31.969 9.408c-.075-1.7-.35-2.869-.744-3.882a7.803 7.803 0 0 0-1.85-2.838A7.867 7.867 0 0 0 26.543.844C25.524.45 24.361.175 22.661.1 20.948.019 20.404 0 16.06 0s-4.888.019-6.595.094c-1.7.075-2.869.35-3.882.744a7.803 7.803 0 0 0-2.838 1.85A7.867 7.867 0 0 0 .901 5.52C.507 6.539.232 7.702.157 9.402c-.081 1.713-.1 2.257-.1 6.601s.019 4.888.094 6.595c.075 1.7.35 2.869.744 3.882a7.895 7.895 0 0 0 1.85 2.838 7.867 7.867 0 0 0 2.832 1.844c1.019.394 2.182.669 3.882.744 1.706.075 2.25.094 6.595.094s4.888-.018 6.595-.094c1.7-.075 2.869-.35 3.882-.744a8.181 8.181 0 0 0 4.682-4.682c.394-1.019.669-2.182.744-3.882.075-1.707.094-2.251.094-6.595s-.006-4.888-.081-6.595zm-2.882 13.065c-.069 1.563-.331 2.407-.55 2.969a5.307 5.307 0 0 1-3.038 3.038c-.563.219-1.413.481-2.969.55-1.688.075-2.194.094-6.464.094s-4.782-.018-6.464-.094c-1.563-.069-2.407-.331-2.969-.55a4.926 4.926 0 0 1-1.838-1.194 4.974 4.974 0 0 1-1.194-1.838c-.219-.563-.481-1.413-.55-2.969-.075-1.688-.094-2.194-.094-6.464s.019-4.782.094-6.464c.069-1.563.331-2.407.55-2.969a4.868 4.868 0 0 1 1.2-1.838A4.974 4.974 0 0 1 6.639 3.55c.563-.219 1.413-.481 2.969-.55 1.688-.075 2.194-.094 6.464-.094 4.276 0 4.782.019 6.464.094 1.563.069 2.407.331 2.969.55a4.914 4.914 0 0 1 1.838 1.194 4.974 4.974 0 0 1 1.194 1.838c.219.563.481 1.413.55 2.969.075 1.688.094 2.194.094 6.464s-.019 4.77-.094 6.457z"/><path d="M16.059 7.782c-4.538 0-8.22 3.682-8.22 8.22s3.682 8.22 8.22 8.22 8.22-3.682 8.22-8.22-3.682-8.22-8.22-8.22zm0 13.553a5.333 5.333 0 0 1 0-10.664 5.333 5.333 0 0 1 0 10.664zM26.524 7.457a1.919 1.919 0 1 1-3.838 0 1.919 1.919 0 0 1 3.838 0z"/></symbol>

<symbol id="icon-twitter" viewBox="0 0 34 32">
<path d="M29.867 4.862c-0.952 0.418-1.966 0.694-3.024 0.829 1.088-0.65 1.918-1.67 2.309-2.901-1.014 0.605-2.134 1.032-3.328 1.27-0.963-1.026-2.336-1.661-3.834-1.661-2.906 0-5.245 2.358-5.245 5.25 0 0.416 0.035 0.816 0.122 1.197-4.363-0.213-8.224-2.304-10.818-5.49-0.453 0.786-0.718 1.685-0.718 2.653 0 1.818 0.936 3.429 2.331 4.362-0.843-0.016-1.67-0.261-2.371-0.646 0 0.016 0 0.037 0 0.058 0 2.55 1.819 4.669 4.205 5.157-0.427 0.117-0.893 0.173-1.376 0.173-0.336 0-0.675-0.019-0.994-0.090 0.68 2.078 2.61 3.606 4.904 3.656-1.786 1.397-4.053 2.238-6.507 2.238-0.43 0-0.843-0.019-1.256-0.072 2.325 1.499 5.080 2.355 8.051 2.355 9.658 0 14.938-8 14.938-14.934 0-0.232-0.008-0.456-0.019-0.678 1.042-0.739 1.917-1.662 2.63-2.725z"></path>
</symbol>

<symbol id="icon-facebook" viewBox="0 0 32 32"><path d="M21.329 5.313h2.921V.225C23.746.156 22.013 0 19.994 0c-4.212 0-7.097 2.649-7.097 7.519V12H8.249v5.688h4.648V32h5.699V17.689h4.46l.708-5.688h-5.169V8.082c.001-1.644.444-2.769 2.735-2.769z"/></symbol>

<symbol id="icon-linkedin" viewBox="0 0 32 32"><path d="M31.992 32v-.001H32V20.263c0-5.741-1.236-10.164-7.948-10.164-3.227 0-5.392 1.771-6.276 3.449h-.093v-2.913h-6.364v21.364h6.627V21.42c0-2.785.528-5.479 3.977-5.479 3.399 0 3.449 3.179 3.449 5.657v10.401h6.62zM.528 10.636h6.635V32H.528V10.636zM3.843 0C1.722 0 0 1.721 0 3.843s1.721 3.879 3.843 3.879c2.121 0 3.843-1.757 3.843-3.879A3.846 3.846 0 0 0 3.843 0z"/></symbol>

<symbol id="icon-location" viewBox="0 0 32 32">
<path d="M14.363 1.789c-4.251 0.547-7.695 2.907-9.497 6.508-1.101 2.201-1.567 5.069-1.239 7.649 0.425 3.339 2.091 6.785 4.817 9.963 1.319 1.539 2.283 2.472 3.16 3.059 1.235 0.833 2.757 1.33 4.395 1.33 1.167 0 2.275-0.252 3.273-0.705l-0.050 0.020c0.976-0.433 1.603-0.888 2.663-1.929 3.381-3.32 5.572-7.020 6.301-10.641 0.219-1.089 0.265-1.593 0.261-2.883-0.004-1.307-0.061-1.845-0.317-3.003-0.801-3.623-3.049-6.513-6.324-8.133-1.221-0.604-2.768-1.059-4.205-1.236-0.807-0.099-2.467-0.099-3.239 0.001zM17.36 3.739c1.348 0.161 2.574 0.547 3.687 1.12l-0.061-0.028c2.595 1.285 4.355 3.459 5.115 6.316 0.296 1.111 0.373 1.744 0.373 3.067 0.001 1.348-0.080 1.997-0.399 3.2-0.704 2.656-2.303 5.373-4.675 7.947-1.444 1.567-2.109 2.1-3.168 2.536-0.811 0.335-1.151 0.395-2.233 0.396-0.916 0-1.025-0.011-1.52-0.148-0.777-0.23-1.455-0.568-2.057-1.004l0.020 0.013c-0.452-0.341-1.881-1.779-2.501-2.516-2.412-2.865-3.784-5.581-4.296-8.504-0.176-1.007-0.176-2.836 0.001-3.84 0.477-2.719 1.604-4.727 3.533-6.304 2.171-1.773 5.115-2.583 8.18-2.251zM15.449 8.644c-1.68 0.181-3.129 1.153-3.976 2.668-0.23 0.428-0.409 0.925-0.511 1.449l-0.005 0.033c-0.133 0.664-0.087 1.731 0.105 2.376 0.422 1.404 1.385 2.532 2.641 3.162l0.030 0.014c0.817 0.403 1.269 0.503 2.267 0.503s1.449-0.1 2.267-0.503c1.286-0.644 2.249-1.772 2.66-3.139l0.009-0.037c0.192-0.651 0.24-1.715 0.107-2.373-0.265-1.312-0.885-2.315-1.949-3.156-0.932-0.737-2.38-1.133-3.644-0.997zM16.975 10.72c0.652 0.201 1.383 0.792 1.784 1.444 0.063 0.1 0.179 0.375 0.257 0.609 0.121 0.359 0.143 0.515 0.141 0.987-0.004 0.945-0.303 1.627-1.004 2.292-0.613 0.584-1.297 0.855-2.153 0.855s-1.54-0.271-2.153-0.855c-0.401-0.37-0.708-0.836-0.885-1.362l-0.007-0.023c-0.156-0.495-0.153-1.329 0.005-1.84 0.369-1.133 1.31-1.981 2.474-2.211l0.021-0.003c0.375-0.069 1.119-0.016 1.52 0.108z"></path>
</symbol>
<symbol id="icon-call" viewBox="0 0 32 32">
<path d="M6.48 1.792c-0.877 0.196-1.656 0.647-2.473 1.433-1.264 1.217-1.949 2.532-2.221 4.269-0.072 0.46-0.087 0.791-0.064 1.545 0.056 1.899 0.461 3.377 1.512 5.508 3.104 6.291 10.359 13.025 16.249 15.083 2.103 0.733 4.261 0.867 5.985 0.368 1.9-0.549 3.521-1.904 4.343-3.625 0.222-0.426 0.372-0.924 0.421-1.452l0.001-0.016c0.131-1.145-0.219-2.177-0.961-2.852-0.163-0.147-1.36-1.023-2.661-1.947-3.105-2.204-3.495-2.4-4.629-2.333-0.856 0.049-1.505 0.423-2.6 1.492l-0.72 0.703-0.197-0.104c-0.351-0.185-1.407-1.012-2.117-1.657-1.725-1.569-3.631-3.672-4.236-4.675l-0.121-0.203 0.636-0.677c0.828-0.884 1.043-1.163 1.293-1.687 0.436-0.905 0.387-1.748-0.165-2.805-0.172-0.332-2.587-3.799-3.556-5.105-0.415-0.56-0.947-0.944-1.661-1.2-0.408-0.147-1.528-0.18-2.056-0.063zM7.931 3.741c0.167 0.054 0.311 0.135 0.435 0.239l-0.002-0.002c0.116 0.097 0.929 1.193 1.809 2.433 1.869 2.636 1.912 2.701 2.020 3.068 0.147 0.504-0.017 0.785-1.149 1.975-0.928 0.975-0.991 1.089-0.991 1.825 0 0.541 0.007 0.573 0.201 0.964 0.687 1.373 3.691 4.623 5.932 6.415 1.299 1.039 2.072 1.384 2.823 1.263 0.464-0.076 0.688-0.231 1.572-1.085 1.217-1.177 1.52-1.303 2.243-0.932 0.343 0.176 4.848 3.34 5.135 3.605 0.357 0.331 0.444 1.141 0.191 1.759-0.439 1.067-1.347 2.016-2.416 2.525-2.092 0.996-4.711 0.639-7.973-1.088-4.269-2.261-9.111-6.887-11.787-11.265-2.104-3.44-2.771-6.289-2.017-8.613 0.505-1.559 1.907-2.952 3.164-3.147 0.283-0.044 0.451-0.031 0.811 0.061z"></path>
</symbol>
<symbol id="icon-sms" viewBox="0 0 32 32">
<path d="M8.247 3.741c-3.271 0.288-5.485 2.053-6.245 4.977-0.288 1.109-0.295 1.277-0.295 7.272 0 3.445 0.020 5.703 0.055 5.984 0.131 1.085 0.353 1.884 0.747 2.68 1.064 2.159 3.021 3.369 5.828 3.608 0.939 0.079 14.389 0.079 15.328 0 2.807-0.239 4.764-1.449 5.828-3.608 0.393-0.796 0.616-1.595 0.747-2.68 0.035-0.281 0.055-2.539 0.055-5.984 0-5.995-0.007-6.163-0.295-7.272-0.675-2.596-2.484-4.276-5.195-4.824-0.307-0.061-0.7-0.117-1.099-0.155l-0.052-0.004c-0.784-0.068-14.632-0.063-15.407 0.005zM23.76 5.712c1.017 0.124 2.068 0.499 2.664 0.948 1.019 0.769 1.572 1.779 1.848 3.367 0.083 0.483 0.129 10.075 0.053 11.172-0.107 1.536-0.397 2.443-1.072 3.341-0.7 0.933-1.952 1.56-3.493 1.748-0.669 0.081-14.851 0.081-15.52 0-1.127-0.137-2.221-0.56-2.895-1.119-0.573-0.475-1.051-1.193-1.315-1.977-0.208-0.621-0.295-1.104-0.356-1.993-0.076-1.097-0.029-10.689 0.053-11.172 0.268-1.543 0.775-2.504 1.724-3.268 0.62-0.5 1.715-0.917 2.735-1.045 0.572-0.071 14.988-0.072 15.573-0.001zM8.872 11.107c-0.181 0.133-0.397 0.379-0.491 0.556-0.092 0.175-0.075 0.592 0.032 0.777 0.095 0.165 4.371 3.628 4.891 3.96 0.692 0.443 1.449 0.664 2.415 0.705 1.263 0.053 2.219-0.193 3.108-0.804 0.617-0.424 4.677-3.717 4.76-3.861 0.059-0.121 0.093-0.264 0.093-0.415 0-0.004-0-0.007-0-0.011v0.001c0-0.212-0.035-0.311-0.179-0.513-0.327-0.46-0.645-0.6-1.097-0.479-0.071 0.019-1.161 0.859-2.423 1.867-1.261 1.007-2.415 1.889-2.564 1.96-0.424 0.2-0.884 0.297-1.409 0.297-0.747 0-1.271-0.151-1.797-0.516-0.119-0.083-1.175-0.92-2.348-1.861s-2.192-1.727-2.264-1.747c-0.271-0.072-0.561-0.039-0.727 0.084z"></path>
</symbol>
<symbol id="icon-untitled" viewBox="0 0 42 32">
<path d="M13.64 30.073h-13.056l12.288-29.056h8.32l-7.552 29.056zM34.376 30.073h-13.056l12.288-29.056h8.32l-7.552 29.056z"></path>
</symbol>
<symbol id="icon-Star-1" viewBox="0 0 34 32">
<path d="M16.713 0.23l4.478 10.767 11.624 0.932-8.856 7.586 2.706 11.343-9.952-6.078-9.952 6.078 2.706-11.343-8.856-7.586 11.624-0.932 4.478-10.767z"></path>
</symbol>

</defs>
</svg>
